<mxfile host="app.diagrams.net" agent="Mozilla/5.0 (X11; Linux x86_64) AppleWebKit/537.36 (KHTML, like Gecko) Chrome/133.0.0.0 Safari/537.36" version="26.0.14">
  <diagram name="Page-1" id="e7e014a7-5840-1c2e-5031-d8a46d1fe8dd">
    <mxGraphModel dx="683" dy="359" grid="1" gridSize="10" guides="1" tooltips="1" connect="1" arrows="1" fold="1" page="1" pageScale="1" pageWidth="1169" pageHeight="826" background="none" math="0" shadow="0">
      <root>
        <mxCell id="0" />
        <mxCell id="1" parent="0" />
        <mxCell id="hQxuQb7kFQIrsYpKP3EI-41" value="" style="ellipse;html=1;shape=startState;labelBackgroundColor=none;" parent="1" vertex="1">
          <mxGeometry x="100" y="20" width="30" height="30" as="geometry" />
        </mxCell>
        <mxCell id="hQxuQb7kFQIrsYpKP3EI-42" value="" style="edgeStyle=orthogonalEdgeStyle;html=1;verticalAlign=bottom;endArrow=open;endSize=8;rounded=0;labelBackgroundColor=none;fontColor=default;" parent="1" source="hQxuQb7kFQIrsYpKP3EI-41" edge="1">
          <mxGeometry relative="1" as="geometry">
            <mxPoint x="115" y="110" as="targetPoint" />
          </mxGeometry>
        </mxCell>
        <mxCell id="hQxuQb7kFQIrsYpKP3EI-43" value="login" style="shape=mxgraph.uml25.behaviorAction;html=1;rounded=1;absoluteArcSize=1;arcSize=10;align=left;spacingLeft=5;whiteSpace=wrap;labelBackgroundColor=none;" parent="1" vertex="1">
          <mxGeometry x="20" y="110" width="190" height="60" as="geometry" />
        </mxCell>
        <mxCell id="hQxuQb7kFQIrsYpKP3EI-44" value="" style="edgeStyle=orthogonalEdgeStyle;html=1;verticalAlign=bottom;endArrow=open;endSize=8;rounded=0;exitX=0.995;exitY=0.467;exitDx=0;exitDy=0;exitPerimeter=0;labelBackgroundColor=none;fontColor=default;" parent="1" source="hQxuQb7kFQIrsYpKP3EI-43" edge="1">
          <mxGeometry relative="1" as="geometry">
            <mxPoint x="340" y="138" as="targetPoint" />
            <mxPoint x="290" y="110" as="sourcePoint" />
          </mxGeometry>
        </mxCell>
        <mxCell id="hQxuQb7kFQIrsYpKP3EI-45" value="Select view sales reports option" style="rounded=1;whiteSpace=wrap;html=1;arcSize=40;labelBackgroundColor=none;" parent="1" vertex="1">
          <mxGeometry x="340" y="120" width="120" height="40" as="geometry" />
        </mxCell>
        <mxCell id="hQxuQb7kFQIrsYpKP3EI-46" value="" style="edgeStyle=orthogonalEdgeStyle;html=1;verticalAlign=bottom;endArrow=open;endSize=8;rounded=0;entryX=0.5;entryY=0;entryDx=0;entryDy=0;labelBackgroundColor=none;fontColor=default;" parent="1" source="hQxuQb7kFQIrsYpKP3EI-45" target="lWH1PgvZQKoOC1lRL_qX-1" edge="1">
          <mxGeometry relative="1" as="geometry">
            <mxPoint x="400" y="222" as="targetPoint" />
          </mxGeometry>
        </mxCell>
        <mxCell id="hQxuQb7kFQIrsYpKP3EI-48" value="" style="edgeStyle=orthogonalEdgeStyle;html=1;verticalAlign=bottom;endArrow=open;endSize=8;rounded=0;labelBackgroundColor=none;fontColor=default;entryX=0.5;entryY=0;entryDx=0;entryDy=0;" parent="1" edge="1" target="hQxuQb7kFQIrsYpKP3EI-53">
          <mxGeometry relative="1" as="geometry">
            <mxPoint x="399.76" y="310" as="targetPoint" />
            <mxPoint x="400" y="260" as="sourcePoint" />
          </mxGeometry>
        </mxCell>
        <mxCell id="hQxuQb7kFQIrsYpKP3EI-49" value="" style="edgeStyle=orthogonalEdgeStyle;html=1;verticalAlign=bottom;endArrow=open;endSize=8;rounded=0;labelBackgroundColor=none;fontColor=default;entryX=0.5;entryY=0;entryDx=0;entryDy=0;exitX=0;exitY=0.5;exitDx=0;exitDy=0;" parent="1" edge="1" target="hQxuQb7kFQIrsYpKP3EI-51" source="lWH1PgvZQKoOC1lRL_qX-1">
          <mxGeometry relative="1" as="geometry">
            <mxPoint x="240" y="300" as="targetPoint" />
            <mxPoint x="240" y="230" as="sourcePoint" />
          </mxGeometry>
        </mxCell>
        <mxCell id="hQxuQb7kFQIrsYpKP3EI-50" value="" style="edgeStyle=orthogonalEdgeStyle;html=1;verticalAlign=bottom;endArrow=open;endSize=8;rounded=0;labelBackgroundColor=none;fontColor=default;entryX=0.5;entryY=0;entryDx=0;entryDy=0;exitX=1;exitY=0.5;exitDx=0;exitDy=0;" parent="1" edge="1" target="hQxuQb7kFQIrsYpKP3EI-55" source="lWH1PgvZQKoOC1lRL_qX-1">
          <mxGeometry relative="1" as="geometry">
            <mxPoint x="560" y="300" as="targetPoint" />
            <mxPoint x="560" y="250" as="sourcePoint" />
          </mxGeometry>
        </mxCell>
        <mxCell id="hQxuQb7kFQIrsYpKP3EI-51" value="Daily sales report" style="rounded=1;whiteSpace=wrap;html=1;arcSize=40;labelBackgroundColor=none;" parent="1" vertex="1">
          <mxGeometry x="180" y="320" width="120" height="40" as="geometry" />
        </mxCell>
        <mxCell id="hQxuQb7kFQIrsYpKP3EI-52" value="" style="edgeStyle=orthogonalEdgeStyle;html=1;verticalAlign=bottom;endArrow=open;endSize=8;rounded=0;entryX=0;entryY=0.5;entryDx=0;entryDy=0;labelBackgroundColor=none;fontColor=default;" parent="1" source="hQxuQb7kFQIrsYpKP3EI-51" target="hQxuQb7kFQIrsYpKP3EI-57" edge="1">
          <mxGeometry relative="1" as="geometry">
            <mxPoint x="240" y="400" as="targetPoint" />
            <Array as="points">
              <mxPoint x="240" y="413" />
            </Array>
          </mxGeometry>
        </mxCell>
        <mxCell id="hQxuQb7kFQIrsYpKP3EI-53" value="Monthly sales report" style="rounded=1;whiteSpace=wrap;html=1;arcSize=40;labelBackgroundColor=none;" parent="1" vertex="1">
          <mxGeometry x="340" y="320" width="120" height="40" as="geometry" />
        </mxCell>
        <mxCell id="hQxuQb7kFQIrsYpKP3EI-54" value="" style="edgeStyle=orthogonalEdgeStyle;html=1;verticalAlign=bottom;endArrow=open;endSize=8;rounded=0;labelBackgroundColor=none;fontColor=default;" parent="1" source="hQxuQb7kFQIrsYpKP3EI-53" edge="1">
          <mxGeometry relative="1" as="geometry">
            <mxPoint x="400" y="400" as="targetPoint" />
          </mxGeometry>
        </mxCell>
        <mxCell id="hQxuQb7kFQIrsYpKP3EI-55" value="Custom date range&lt;div&gt;report&lt;/div&gt;" style="rounded=1;whiteSpace=wrap;html=1;arcSize=40;labelBackgroundColor=none;" parent="1" vertex="1">
          <mxGeometry x="500" y="330" width="120" height="40" as="geometry" />
        </mxCell>
        <mxCell id="hQxuQb7kFQIrsYpKP3EI-56" value="" style="edgeStyle=orthogonalEdgeStyle;html=1;verticalAlign=bottom;endArrow=open;endSize=8;rounded=0;entryX=1;entryY=0.5;entryDx=0;entryDy=0;labelBackgroundColor=none;fontColor=default;" parent="1" source="hQxuQb7kFQIrsYpKP3EI-55" target="hQxuQb7kFQIrsYpKP3EI-57" edge="1">
          <mxGeometry relative="1" as="geometry">
            <mxPoint x="560" y="400" as="targetPoint" />
            <Array as="points">
              <mxPoint x="560" y="413" />
            </Array>
          </mxGeometry>
        </mxCell>
        <mxCell id="hQxuQb7kFQIrsYpKP3EI-57" value="" style="rhombus;labelBackgroundColor=none;" parent="1" vertex="1">
          <mxGeometry x="385" y="398" width="30" height="30" as="geometry" />
        </mxCell>
        <mxCell id="hQxuQb7kFQIrsYpKP3EI-58" value="" style="edgeStyle=orthogonalEdgeStyle;html=1;verticalAlign=bottom;endArrow=open;endSize=8;rounded=0;labelBackgroundColor=none;fontColor=default;" parent="1" edge="1">
          <mxGeometry relative="1" as="geometry">
            <mxPoint x="400" y="460" as="targetPoint" />
            <mxPoint x="399.5" y="428" as="sourcePoint" />
          </mxGeometry>
        </mxCell>
        <mxCell id="hQxuQb7kFQIrsYpKP3EI-59" value="Fetch data from database" style="rounded=1;whiteSpace=wrap;html=1;arcSize=40;labelBackgroundColor=none;" parent="1" vertex="1">
          <mxGeometry x="340" y="460" width="120" height="40" as="geometry" />
        </mxCell>
        <mxCell id="hQxuQb7kFQIrsYpKP3EI-60" value="" style="edgeStyle=orthogonalEdgeStyle;html=1;verticalAlign=bottom;endArrow=open;endSize=8;rounded=0;labelBackgroundColor=none;fontColor=default;" parent="1" source="hQxuQb7kFQIrsYpKP3EI-59" edge="1">
          <mxGeometry relative="1" as="geometry">
            <mxPoint x="400" y="560" as="targetPoint" />
          </mxGeometry>
        </mxCell>
        <mxCell id="hQxuQb7kFQIrsYpKP3EI-61" value="Generate report" style="rounded=1;whiteSpace=wrap;html=1;arcSize=40;labelBackgroundColor=none;" parent="1" vertex="1">
          <mxGeometry x="340" y="560" width="120" height="40" as="geometry" />
        </mxCell>
        <mxCell id="hQxuQb7kFQIrsYpKP3EI-62" value="" style="edgeStyle=orthogonalEdgeStyle;html=1;verticalAlign=bottom;endArrow=open;endSize=8;rounded=0;labelBackgroundColor=none;fontColor=default;" parent="1" source="hQxuQb7kFQIrsYpKP3EI-61" edge="1">
          <mxGeometry relative="1" as="geometry">
            <mxPoint x="400" y="660" as="targetPoint" />
          </mxGeometry>
        </mxCell>
        <mxCell id="hQxuQb7kFQIrsYpKP3EI-63" value="Display report" style="rounded=1;whiteSpace=wrap;html=1;arcSize=40;labelBackgroundColor=none;" parent="1" vertex="1">
          <mxGeometry x="340" y="660" width="120" height="40" as="geometry" />
        </mxCell>
        <mxCell id="hQxuQb7kFQIrsYpKP3EI-64" value="" style="edgeStyle=orthogonalEdgeStyle;html=1;verticalAlign=bottom;endArrow=open;endSize=8;rounded=0;labelBackgroundColor=none;fontColor=default;" parent="1" source="hQxuQb7kFQIrsYpKP3EI-63" edge="1">
          <mxGeometry relative="1" as="geometry">
            <mxPoint x="400" y="760" as="targetPoint" />
          </mxGeometry>
        </mxCell>
        <mxCell id="hQxuQb7kFQIrsYpKP3EI-67" value="Choose to print the report" style="rounded=1;whiteSpace=wrap;html=1;arcSize=40;labelBackgroundColor=none;" parent="1" vertex="1">
          <mxGeometry x="340" y="760" width="120" height="40" as="geometry" />
        </mxCell>
        <mxCell id="hQxuQb7kFQIrsYpKP3EI-68" value="" style="edgeStyle=orthogonalEdgeStyle;html=1;verticalAlign=bottom;endArrow=open;endSize=8;rounded=0;labelBackgroundColor=none;fontColor=default;" parent="1" source="hQxuQb7kFQIrsYpKP3EI-67" edge="1">
          <mxGeometry relative="1" as="geometry">
            <mxPoint x="400" y="860" as="targetPoint" />
          </mxGeometry>
        </mxCell>
        <mxCell id="hQxuQb7kFQIrsYpKP3EI-69" value="" style="rhombus;whiteSpace=wrap;html=1;labelBackgroundColor=none;" parent="1" vertex="1">
          <mxGeometry x="360" y="860" width="80" height="40" as="geometry" />
        </mxCell>
        <mxCell id="hQxuQb7kFQIrsYpKP3EI-70" value="no" style="edgeStyle=orthogonalEdgeStyle;html=1;align=left;verticalAlign=bottom;endArrow=open;endSize=8;rounded=0;entryX=1;entryY=0.5;entryDx=0;entryDy=0;labelBackgroundColor=none;fontColor=default;" parent="1" source="hQxuQb7kFQIrsYpKP3EI-69" target="hQxuQb7kFQIrsYpKP3EI-74" edge="1">
          <mxGeometry x="-1" relative="1" as="geometry">
            <mxPoint x="540" y="880" as="targetPoint" />
            <Array as="points">
              <mxPoint x="500" y="880" />
              <mxPoint x="500" y="1075" />
            </Array>
          </mxGeometry>
        </mxCell>
        <mxCell id="hQxuQb7kFQIrsYpKP3EI-71" value="yes" style="edgeStyle=orthogonalEdgeStyle;html=1;align=left;verticalAlign=top;endArrow=open;endSize=8;rounded=0;labelBackgroundColor=none;fontColor=default;" parent="1" source="hQxuQb7kFQIrsYpKP3EI-69" edge="1">
          <mxGeometry x="-1" relative="1" as="geometry">
            <mxPoint x="400" y="960" as="targetPoint" />
          </mxGeometry>
        </mxCell>
        <mxCell id="hQxuQb7kFQIrsYpKP3EI-72" value="Print the report" style="rounded=1;whiteSpace=wrap;html=1;arcSize=40;labelBackgroundColor=none;" parent="1" vertex="1">
          <mxGeometry x="340" y="960" width="120" height="40" as="geometry" />
        </mxCell>
        <mxCell id="hQxuQb7kFQIrsYpKP3EI-73" value="" style="edgeStyle=orthogonalEdgeStyle;html=1;verticalAlign=bottom;endArrow=open;endSize=8;rounded=0;labelBackgroundColor=none;fontColor=default;" parent="1" source="hQxuQb7kFQIrsYpKP3EI-72" edge="1">
          <mxGeometry relative="1" as="geometry">
            <mxPoint x="400" y="1060" as="targetPoint" />
          </mxGeometry>
        </mxCell>
        <mxCell id="hQxuQb7kFQIrsYpKP3EI-74" value="" style="ellipse;html=1;shape=endState;labelBackgroundColor=none;" parent="1" vertex="1">
          <mxGeometry x="385" y="1060" width="30" height="30" as="geometry" />
        </mxCell>
        <mxCell id="lWH1PgvZQKoOC1lRL_qX-1" value="" style="rhombus;" vertex="1" parent="1">
          <mxGeometry x="385" y="230" width="30" height="30" as="geometry" />
        </mxCell>
      </root>
    </mxGraphModel>
  </diagram>
</mxfile>
